<svg width="6" height="5" viewBox="0 0 6 5" fill="none" xmlns="http://www.w3.org/2000/svg">
<path d="M5.10594 0C5.24784 0.000913575 5.38749 0.0328011 5.51351 0.093062C5.63953 0.153323 5.74835 0.240251 5.83109 0.346756C5.91384 0.453261 5.96816 0.576327 5.98963 0.705917C6.01111 0.835507 5.99912 0.967952 5.95465 1.09245L5.93425 1.14374L5.91564 1.17868L3.78786 4.57054C3.71276 4.69608 3.6038 4.80155 3.47156 4.8767C3.33932 4.95185 3.18829 4.99413 3.03314 4.99943C2.87799 5.00473 2.72399 4.97288 2.5861 4.90696C2.44822 4.84104 2.33112 4.7433 2.24619 4.62322L2.21528 4.57526L0.0844929 1.17868L0.0661861 1.14402C0.0121398 1.02109 -0.00929179 0.887996 0.00368063 0.755853C0.016653 0.623709 0.063653 0.49635 0.140757 0.384408C0.21786 0.272465 0.32283 0.179189 0.446903 0.112365C0.570976 0.045541 0.710551 0.00710888 0.853976 0.000277251L0.871383 0L0.889389 0.000554569L0.902294 0H5.10594Z" fill="#777777"/>
</svg>
