<svg width="13" height="15" viewBox="0 0 13 15" fill="none" xmlns="http://www.w3.org/2000/svg">
<path d="M2.16667 11.25H10.8333C11.1313 11.25 11.375 10.9688 11.375 10.625C11.375 10.2812 11.1313 10 10.8333 10H2.16667C1.86875 10 1.625 10.2812 1.625 10.625C1.625 10.9688 1.86875 11.25 2.16667 11.25ZM2.16667 8.125H10.8333C11.1313 8.125 11.375 7.84375 11.375 7.5C11.375 7.15625 11.1313 6.875 10.8333 6.875H2.16667C1.86875 6.875 1.625 7.15625 1.625 7.5C1.625 7.84375 1.86875 8.125 2.16667 8.125ZM1.625 4.375C1.625 4.71875 1.86875 5 2.16667 5H10.8333C11.1313 5 11.375 4.71875 11.375 4.375C11.375 4.03125 11.1313 3.75 10.8333 3.75H2.16667C1.86875 3.75 1.625 4.03125 1.625 4.375Z" fill="#3E3D3D"/>
</svg>
