<svg width="28" height="28" viewBox="0 0 28 28" fill="none" xmlns="http://www.w3.org/2000/svg">
<circle cx="14" cy="14" r="14" fill="#23B154"/>
<path d="M21.1416 11.3984C21.6096 13.1265 21.3862 14.9654 20.5187 16.5262C19.6512 18.0871 18.2075 19.2474 16.4929 19.762L16.2776 19.823L11.8337 21.0007C11.2699 21.15 10.6693 21.0797 10.1536 20.8041C9.63793 20.5284 9.24566 20.0681 9.05628 19.5163L9.01206 19.3716L7.80973 14.9332C7.33172 13.1677 7.57559 11.2884 8.48769 9.7086C9.39978 8.1288 10.9054 6.97794 12.6733 6.50919C14.4412 6.04045 16.3266 6.29222 17.9147 7.20911C19.5028 8.12601 20.6636 9.63292 21.1416 11.3984ZM15.622 11.1802C15.3599 11.0289 15.0707 10.9304 14.7709 10.8904C14.4711 10.8503 14.1667 10.8696 13.8749 10.9469C13.5831 11.0243 13.3097 11.1583 13.0703 11.3413C12.8309 11.5243 12.6302 11.7526 12.4797 12.0134C12.3291 12.2741 12.2317 12.5621 12.1929 12.8609C12.1542 13.1597 12.1748 13.4635 12.2537 13.7549C12.3326 14.0463 12.4682 14.3196 12.6527 14.5592C12.8373 14.7988 13.0672 15 13.3293 15.1513C13.8587 15.4569 14.4871 15.5408 15.0764 15.3846C15.6657 15.2284 16.1676 14.8447 16.4716 14.3181C16.7757 13.7915 16.857 13.1651 16.6976 12.5766C16.5383 11.9882 16.1514 11.4859 15.622 11.1802Z" fill="white"/>
</svg>
