<svg width="22" height="22" viewBox="0 0 22 22" fill="none" xmlns="http://www.w3.org/2000/svg">
<path d="M16.4592 19.0403L18.9205 10.332C18.959 10.1957 18.9654 10.0523 18.9392 9.91303C18.913 9.7738 18.8548 9.64254 18.7693 9.52956C18.6838 9.41658 18.5733 9.32495 18.4465 9.26188C18.3196 9.1988 18.1798 9.16599 18.0382 9.16601H12.776C12.7006 9.16602 12.6262 9.149 12.5582 9.11623C12.4903 9.08346 12.4306 9.03579 12.3836 8.97676C12.3367 8.91773 12.3036 8.84886 12.287 8.77529C12.2703 8.70173 12.2705 8.62535 12.2875 8.55185L12.5166 7.56001C12.7265 6.65022 12.7939 5.71293 12.7165 4.78252L12.6743 4.27697C12.6291 3.73462 12.3932 3.22584 12.0083 2.84102C11.6563 2.48893 11.1789 2.29109 10.681 2.29102H10.571C10.2699 2.29102 9.99258 2.45418 9.84683 2.71727L8.62813 4.91039C8.08178 5.89398 7.26736 6.7022 6.27963 7.24101L3.22758 8.90476C3.08289 8.98372 2.96216 9.10024 2.87811 9.24204C2.79406 9.38384 2.74981 9.54568 2.75 9.71051V18.791C2.75 19.0341 2.84658 19.2673 3.01849 19.4392C3.19039 19.6111 3.42355 19.7077 3.66667 19.7077H15.5774C15.777 19.7076 15.9711 19.6424 16.1303 19.522C16.2894 19.4015 16.4049 19.2324 16.4592 19.0403Z" stroke="#A79C9C" stroke-width="0.7" stroke-linecap="round" stroke-linejoin="round"/>
</svg>
