<svg width="44" height="60" viewBox="0 0 44 60" fill="none" xmlns="http://www.w3.org/2000/svg">
<path fill-rule="evenodd" clip-rule="evenodd" d="M43.5673 20.0703C43.5667 24.7761 41.7619 29.3297 38.4728 32.9241C35.1838 36.5184 30.6229 38.9214 25.5986 39.707V56.5758C25.5986 57.456 25.2199 58.3001 24.546 58.9225C23.872 59.5449 22.9579 59.8945 22.0048 59.8945C21.0517 59.8945 20.1376 59.5449 19.4636 58.9225C18.7897 58.3001 18.4111 57.456 18.4111 56.5758V39.707C13.0921 38.8616 8.30954 36.2054 5.00761 32.2629C1.70567 28.3203 0.124271 23.3779 0.575585 18.4113C1.0269 13.4446 3.47813 8.81467 7.44539 5.43543C11.4126 2.05618 16.6076 0.173205 22.0048 0.158203C27.7235 0.158203 33.208 2.25608 37.2518 5.99033C41.2956 9.72457 43.5673 14.7893 43.5673 20.0703ZM22.0048 33.3451C25.8173 33.3451 29.4736 31.9465 32.1695 29.457C34.8653 26.9675 36.3798 23.591 36.3798 20.0703C36.3798 16.5496 34.8653 13.1731 32.1695 10.6837C29.4736 8.19416 25.8173 6.79557 22.0048 6.79557C18.1923 6.79557 14.536 8.19416 11.8401 10.6837C9.14431 13.1731 7.62981 16.5496 7.62981 20.0703C7.62981 23.591 9.14431 26.9675 11.8401 29.457C14.536 31.9465 18.1923 33.3451 22.0048 33.3451Z" fill="#2F80ED"/>
</svg>
